<?xml version="1.0" encoding="iso-8859-1"?>
<!-- Generator: Adobe Illustrator 22.1.0, SVG Export Plug-In . SVG Version: 6.00 Build 0)  -->
<svg version="1.1" xmlns="http://www.w3.org/2000/svg" xmlns:xlink="http://www.w3.org/1999/xlink" x="0px" y="0px"
	 viewBox="0 0 64 64" style="enable-background:new 0 0 64 64;" xml:space="preserve">
<g id="_x35_">
	<g>
		<path style="fill:#EAD11F;" d="M0.087,29.758C0.036,30.5,0,31.245,0,32c0,0.802,0.04,1.595,0.098,2.382l32.066,20.58l31.74-20.602
			C63.961,33.58,64,32.795,64,32c0-0.767-0.037-1.526-0.09-2.28L31.953,9.037L0.087,29.758z M49.956,32
			c0,1.202-0.124,2.376-0.36,3.509c0.003,0.002,0.005,0.004,0.008,0.007c-0.039,0.189-0.094,0.374-0.14,0.562
			c-0.027,0.11-0.053,0.221-0.082,0.331c-0.158,0.604-0.338,1.202-0.562,1.785c-0.005-0.004-0.009-0.009-0.014-0.013
			c-2.489,6.452-8.756,11.033-16.103,11.033c-9.514-0.015-17.214-7.739-17.199-17.253c0.003-1.718,0.26-3.375,0.731-4.94
			c-0.018,0.002-0.036,0.003-0.055,0.004c0.297-0.975,0.681-1.921,1.149-2.826c0.013-0.001,0.025-0.001,0.038-0.002
			c2.849-5.607,8.671-9.447,15.39-9.436C42.266,14.775,49.964,22.492,49.956,32z"/>
		<path style="fill:#325DB2;" d="M16.235,27.02c-0.47,1.565-0.728,3.222-0.731,4.94c-0.015,9.514,7.685,17.238,17.199,17.253
			c7.348,0,13.614-4.581,16.103-11.033C42.672,32.321,31.474,25.582,16.235,27.02z M18.384,38.436l-0.365-0.203l-0.189,0.091
			l-0.176,0.085v0l0,0l0.068-0.338l0.014-0.068l-0.284-0.297l0.406-0.054l0.189-0.365l0.176,0.379l0.406,0.081l-0.311,0.27
			L18.384,38.436z M18.628,29.742l-0.541,0.27l0.135-0.622l-0.446-0.446l0.622-0.068l0.27-0.554l0.27,0.568l0.595,0.108
			l-0.446,0.419l0.081,0.622L18.628,29.742z M32.162,37.733l0.297-0.041l0.135-0.27l0.135,0.27l0.297,0.068l-0.216,0.203
			l0.041,0.311l-0.27-0.149l-0.27,0.135l0.068-0.311L32.162,37.733z M33.312,45.67l-0.216-0.122l-0.243,0.122l0.054-0.27
			L32.73,45.21l0.257-0.027l0.122-0.23l0.108,0.243l0.257,0.041l-0.189,0.176L33.312,45.67z M42.06,45.4l-0.325-0.189l-0.325,0.176
			l0.081-0.379l-0.257-0.27l0.365-0.054l0.162-0.338l0.149,0.352l0.365,0.068l-0.27,0.27L42.06,45.4z M45.386,40.086l-0.297-0.149
			l-0.297,0.135l0.068-0.311l-0.23-0.216l0.325-0.041l0.162-0.27l0.135,0.27l0.338,0.068l-0.257,0.203L45.386,40.086z
			 M46.941,37.922l0.135-0.27l0.135,0.284l0.284,0.054l-0.216,0.216l0.041,0.297l-0.27-0.135l-0.27,0.135l0.068-0.311l-0.216-0.23
			L46.941,37.922z M44.629,37.895l0.243-0.473l0.216,0.487l0.514,0.095l-0.392,0.352l0.081,0.527l-0.46-0.27l-0.473,0.243
			l0.108-0.527l-0.365-0.379L44.629,37.895z M44.426,40.775l0.189-0.365l0.176,0.379l0.406,0.081l-0.311,0.27l0.054,0.419
			l-0.352-0.203l-0.365,0.189l0.081-0.406l-0.284-0.311L44.426,40.775z M43.02,41.303l0.149-0.27l0.135,0.27l0.311,0.068
			l-0.23,0.216l0.041,0.325l-0.27-0.162l-0.284,0.135l0.054-0.311l-0.216-0.23L43.02,41.303z M41.641,41.289l0.162-0.311
			l0.135,0.325l0.338,0.054L42.019,41.6l0.054,0.352l-0.297-0.189l-0.311,0.162l0.068-0.352l-0.23-0.243L41.641,41.289z
			 M41.546,43.141l0.176-0.338l0.162,0.352l0.406,0.068l-0.311,0.257l0.054,0.379l-0.338-0.189l-0.365,0.162l0.081-0.379l-0.27-0.27
			L41.546,43.141z M39.058,41.33l0.135-0.27l0.135,0.27l0.297,0.054L39.41,41.6l0.027,0.311l-0.257-0.162l-0.27,0.135l0.054-0.297
			l-0.203-0.23L39.058,41.33z M38.368,44.088l0.595,0.108l-0.46,0.419l0.081,0.622l-0.527-0.311l-0.541,0.27l0.108-0.608
			l-0.419-0.446l0.608-0.068l0.284-0.554L38.368,44.088z M37.125,31.229l0.203-0.379l0.176,0.406l0.406,0.068l-0.297,0.297
			l0.054,0.433L37.3,31.838l-0.392,0.189l0.081-0.433l-0.297-0.311L37.125,31.229z M36.624,41.33l0.135-0.27l0.135,0.27l0.284,0.054
			L36.962,41.6l0.041,0.311l-0.27-0.162l-0.27,0.135l0.068-0.297l-0.216-0.23L36.624,41.33z M34.583,36.11l0.189-0.365l0.162,0.379
			l0.406,0.068l-0.297,0.284l0.054,0.419l-0.352-0.216l-0.379,0.189l0.081-0.406l-0.27-0.311L34.583,36.11z M33.609,40.559
			l-0.46-0.27l-0.473,0.243l0.108-0.527l-0.379-0.392l0.541-0.054l0.243-0.487l0.216,0.5l0.527,0.095l-0.406,0.365L33.609,40.559z
			 M32.622,34.218l0.284-0.554l0.27,0.568l0.595,0.108l-0.46,0.433l0.095,0.608l-0.541-0.297l-0.541,0.27l0.108-0.622l-0.419-0.446
			L32.622,34.218z M31.135,36.11l0.189-0.379l0.162,0.392l0.406,0.068l-0.297,0.284l0.054,0.406l-0.365-0.203l-0.365,0.189
			l0.081-0.406l-0.27-0.311L31.135,36.11z M26.253,32.527l0.297-0.541l0.257,0.568l0.595,0.108l-0.446,0.419l0.081,0.622
			l-0.541-0.311l-0.541,0.27l0.122-0.608l-0.433-0.446L26.253,32.527z M26.253,41.14l0.297-0.541l0.257,0.568l0.595,0.108
			l-0.446,0.406l0.081,0.636l-0.541-0.311l-0.541,0.27l0.122-0.608l-0.433-0.46L26.253,41.14z M23.522,37.652l0.189-0.365
			l0.176,0.379l0.406,0.068l-0.311,0.284l0.054,0.406l-0.352-0.189l-0.365,0.176l0.081-0.406l-0.284-0.297L23.522,37.652z
			 M23.008,39.166l0.176,0.379l0.406,0.081l-0.311,0.27l0.054,0.419l-0.352-0.203l-0.365,0.189l0.081-0.406l-0.284-0.311
			l0.406-0.054L23.008,39.166z M21.967,35.191l0.108-0.23l0.108,0.243l0.257,0.041l-0.189,0.176l0.041,0.27l-0.23-0.135l-0.23,0.108
			l0.054-0.257l-0.176-0.189L21.967,35.191z M20.656,36.002l0.595,0.108l-0.446,0.419l0.081,0.622l-0.541-0.311l-0.541,0.27
			l0.122-0.608l-0.433-0.446l0.608-0.081l0.284-0.541L20.656,36.002z M17.367,24.197c12.877-0.841,23.073,3.28,32.229,11.312
			c0.235-1.133,0.36-2.306,0.36-3.509c0.007-9.508-7.691-17.225-17.199-17.24C26.038,14.75,20.216,18.59,17.367,24.197z
			 M37.949,26.389l0.257-0.487l0.23,0.514l0.541,0.095l-0.406,0.365l0.081,0.554l-0.487-0.27l-0.487,0.243l0.108-0.541l-0.379-0.406
			L37.949,26.389z"/>
		<path style="fill:#249338;" d="M63.91,29.72L31.953,9.037L0.087,29.758C1.239,13.132,15.081,0,32,0
			C48.906,0,62.74,13.112,63.91,29.72z M0.098,34.382C1.318,50.942,15.129,64,32,64c16.878,0,30.694-13.07,31.904-29.639
			l-31.74,20.602L0.098,34.382z M41.235,32.135l1.217,0.744l0.162-0.27l-0.906-0.541l0.27-0.446l0.811,0.5l0.176-0.27l-0.811-0.5
			l0.216-0.365l0.865,0.541l0.162-0.27l-1.19-0.744l-0.987,1.623H41.235z M43.48,32.825c-0.042,0.093-0.051,0.198-0.027,0.297
			c0.035,0.093,0.102,0.17,0.189,0.216c0.108,0.068,0.189,0.095,0.27,0.081c0.081,0,0.135-0.041,0.176-0.108
			c0.02-0.032,0.03-0.07,0.027-0.108c0-0.041-0.027-0.095-0.068-0.135c-0.069-0.084-0.141-0.165-0.216-0.243
			c-0.149-0.149-0.243-0.27-0.27-0.379c-0.045-0.141-0.025-0.294,0.054-0.419c0.051-0.083,0.127-0.149,0.216-0.189
			c0.093-0.043,0.196-0.057,0.297-0.041c0.125,0.021,0.245,0.067,0.352,0.135c0.203,0.135,0.325,0.27,0.365,0.419
			c0.05,0.154,0.03,0.322-0.054,0.46l-0.338-0.189c0.041-0.095,0.054-0.162,0.027-0.23c-0.027-0.068-0.081-0.135-0.176-0.189
			c-0.075-0.054-0.165-0.082-0.257-0.081c-0.045,0.003-0.086,0.028-0.108,0.068c-0.027,0.041-0.027,0.081-0.014,0.135
			c0.014,0.054,0.095,0.162,0.23,0.297c0.135,0.135,0.23,0.243,0.27,0.325c0.111,0.173,0.111,0.395,0,0.568
			c-0.058,0.094-0.143,0.17-0.243,0.216c-0.101,0.047-0.215,0.061-0.325,0.041c-0.139-0.024-0.272-0.074-0.392-0.149
			c-0.175-0.093-0.309-0.247-0.379-0.433c-0.052-0.181-0.033-0.374,0.054-0.541L43.48,32.825z M25.753,26.727l-1.433-0.135
			l0.176-1.893l1.393,0.135l-0.027,0.325l-1.014-0.095l-0.041,0.406l0.946,0.095l-0.041,0.325l-0.946-0.095l-0.041,0.514
			l1.055,0.095L25.753,26.727z M45.021,33.852c-0.046,0.092-0.061,0.197-0.041,0.297c0.032,0.098,0.099,0.18,0.189,0.23
			c0.095,0.068,0.189,0.108,0.27,0.095c0.081,0,0.135-0.041,0.176-0.095c0.024-0.036,0.033-0.079,0.027-0.122
			c-0.011-0.05-0.034-0.096-0.068-0.135c-0.027-0.041-0.095-0.135-0.203-0.243c-0.111-0.115-0.194-0.254-0.243-0.406
			c-0.07-0.238,0.045-0.491,0.27-0.595c0.098-0.041,0.207-0.05,0.311-0.027c0.127,0.029,0.247,0.085,0.352,0.162
			c0.189,0.135,0.311,0.27,0.352,0.433c0.038,0.154,0.008,0.316-0.081,0.446l-0.325-0.203c0.041-0.081,0.054-0.162,0.027-0.23
			c-0.014-0.068-0.068-0.135-0.162-0.189c-0.069-0.056-0.154-0.089-0.243-0.095c-0.05-0.002-0.097,0.024-0.122,0.068
			c-0.027,0.041-0.027,0.081-0.013,0.135c0.013,0.054,0.081,0.162,0.216,0.297c0.135,0.135,0.216,0.257,0.27,0.338
			c0.099,0.181,0.083,0.403-0.041,0.568c-0.063,0.092-0.153,0.163-0.257,0.203c-0.101,0.047-0.215,0.061-0.325,0.041
			c-0.122-0.027-0.243-0.081-0.379-0.176c-0.203-0.135-0.325-0.284-0.365-0.446c-0.044-0.184-0.015-0.378,0.081-0.541l0.014,0.014
			L45.021,33.852z M26.578,26.875l-0.352-0.054l0.27-1.893l0.568,0.095l0.149,1.325l0.527-1.217l0.568,0.081l-0.27,1.866
			l-0.365-0.054l0.23-1.474l-0.595,1.42l-0.365-0.054l-0.149-1.528L26.578,26.875z M37.706,30.148
			c-0.093-0.14-0.14-0.305-0.135-0.473c0.007-0.175,0.053-0.346,0.135-0.5c0.081-0.163,0.202-0.302,0.352-0.406
			c0.143-0.099,0.313-0.151,0.487-0.149c0.135,0,0.27,0.041,0.433,0.135c0.216,0.095,0.352,0.23,0.419,0.379
			c0.07,0.148,0.085,0.316,0.041,0.473l-0.365-0.108c0.022-0.091,0.013-0.186-0.027-0.27c-0.041-0.081-0.108-0.135-0.216-0.189
			c-0.128-0.073-0.28-0.088-0.419-0.041c-0.135,0.041-0.257,0.162-0.352,0.352c-0.095,0.189-0.135,0.365-0.095,0.514
			c0.038,0.143,0.137,0.262,0.27,0.325c0.068,0.041,0.149,0.068,0.23,0.068c0.081,0.012,0.163,0.012,0.243,0l0.108-0.216
			l-0.392-0.203l0.149-0.27l0.73,0.365l-0.338,0.676c-0.108,0.027-0.243,0.041-0.406,0.027c-0.156-0.017-0.307-0.063-0.446-0.135
			C37.948,30.419,37.808,30.298,37.706,30.148z M18.938,24.442c-0.135,0-0.27,0.027-0.406,0.068
			c-0.091,0.037-0.174,0.092-0.243,0.162c-0.078,0.074-0.142,0.161-0.189,0.257c-0.054,0.135-0.095,0.284-0.095,0.487
			c-0.021,0.26,0.062,0.517,0.23,0.717c0.17,0.175,0.405,0.273,0.649,0.27c0.248,0.023,0.493-0.061,0.676-0.23
			c0.176-0.176,0.27-0.419,0.27-0.717c0.031-0.267-0.047-0.535-0.216-0.744C19.439,24.55,19.222,24.442,18.938,24.442z
			 M19.29,25.929c-0.097,0.104-0.236,0.159-0.379,0.149c-0.162,0-0.284-0.068-0.379-0.176c-0.095-0.122-0.135-0.284-0.135-0.487
			c0.014-0.216,0.054-0.379,0.162-0.487c0.096-0.107,0.235-0.167,0.379-0.162c0.142,0.001,0.276,0.065,0.365,0.176
			c0.108,0.108,0.135,0.27,0.135,0.487C19.425,25.659,19.385,25.821,19.29,25.929z M20.629,25.604h0.081
			c0.064,0,0.128,0.009,0.189,0.027c0.047,0.016,0.089,0.044,0.122,0.081l0.189,0.27l0.27,0.433h0.46l-0.23-0.379
			c-0.081-0.149-0.149-0.257-0.203-0.311l-0.203-0.162c0.137-0.011,0.265-0.069,0.365-0.162c0.088-0.096,0.136-0.221,0.135-0.352
			c0-0.122-0.027-0.23-0.081-0.311c-0.054-0.081-0.122-0.149-0.216-0.176c-0.095-0.041-0.23-0.068-0.433-0.068h-0.811l-0.027,1.893
			h0.392V25.604z M20.642,25.293V24.82l0.311,0.013h0.27c0.054,0.014,0.108,0.041,0.135,0.081c0.041,0.027,0.054,0.081,0.054,0.162
			c0,0.041-0.014,0.108-0.041,0.135c-0.027,0.027-0.068,0.068-0.108,0.068c-0.041,0.027-0.162,0.027-0.352,0.027h-0.27V25.293z
			 M23.36,26.497c0.099-0.024,0.192-0.07,0.27-0.135c0.095-0.081,0.176-0.189,0.23-0.325c0.045-0.131,0.068-0.268,0.068-0.406
			c0.014-0.176,0-0.325-0.041-0.446c-0.029-0.119-0.084-0.23-0.162-0.325c-0.072-0.086-0.165-0.151-0.27-0.189
			c-0.081-0.027-0.203-0.041-0.352-0.041L22.4,24.59l-0.095,1.893l0.717,0.041C23.157,26.524,23.279,26.524,23.36,26.497z
			 M22.765,24.928h0.176c0.105,0.004,0.209,0.018,0.311,0.041c0.061,0.017,0.117,0.05,0.162,0.095
			c0.052,0.053,0.089,0.118,0.108,0.189c0.014,0.081,0.014,0.189,0.014,0.338c0,0.149-0.027,0.27-0.054,0.352
			c-0.027,0.081-0.068,0.135-0.108,0.176c-0.041,0.041-0.095,0.068-0.162,0.068h-0.514L22.765,24.928z M32.216,27.362l0.23,0.068
			c0.176,0.041,0.311,0.068,0.406,0.068c0.157,0,0.305-0.069,0.406-0.189c0.068-0.068,0.108-0.162,0.135-0.27
			c0.027-0.149,0.027-0.27-0.027-0.379c-0.041-0.122-0.122-0.203-0.216-0.257l-0.433-0.135l-0.595-0.135l-0.446,1.839l0.379,0.095
			L32.216,27.362z M32.406,26.537h0.014l0.176,0.041l0.257,0.068c0.058,0.024,0.106,0.067,0.135,0.122
			c0.027,0.054,0.027,0.108,0.027,0.176c-0.022,0.107-0.109,0.188-0.216,0.203c-0.054,0.014-0.162-0.014-0.297-0.041l-0.203-0.054
			L32.406,26.537z M34.055,27.876l0.068,0.027c0.095,0.027,0.149,0.054,0.176,0.095c0.035,0.029,0.063,0.066,0.081,0.108
			c0.038,0.106,0.07,0.214,0.095,0.325l0.135,0.487l0.419,0.149l-0.081-0.419l-0.108-0.365c-0.027-0.081-0.081-0.149-0.135-0.216
			c0.162,0.027,0.297,0.013,0.406-0.041c0.108-0.068,0.189-0.162,0.243-0.297c0.027-0.108,0.014-0.203,0-0.311
			c-0.013-0.108-0.068-0.176-0.135-0.243c-0.081-0.054-0.203-0.122-0.406-0.189l-0.744-0.27l-0.635,1.785l0.352,0.135L34.055,27.876
			z M34.312,27.146l0.27,0.095l0.27,0.095c0.05,0.026,0.088,0.069,0.108,0.122c0.027,0.054,0.027,0.108,0,0.162
			c-0.014,0.054-0.041,0.095-0.081,0.122c-0.041,0.041-0.081,0.041-0.122,0.041c-0.054,0-0.162-0.027-0.338-0.095l-0.257-0.095
			H34.15L34.312,27.146z M36.246,29.634c0.257,0.081,0.5,0.068,0.703-0.054c0.228-0.134,0.393-0.353,0.46-0.608
			c0.081-0.297,0.081-0.554-0.027-0.771c-0.117-0.223-0.323-0.386-0.568-0.446C36.665,27.7,36.53,27.7,36.394,27.7
			c-0.081,0.014-0.176,0.041-0.27,0.095c-0.093,0.053-0.175,0.121-0.243,0.203c-0.105,0.127-0.183,0.274-0.23,0.433
			c-0.092,0.246-0.082,0.518,0.027,0.757C35.796,29.41,36.002,29.572,36.246,29.634z M36.029,28.539
			c0.068-0.216,0.162-0.352,0.297-0.433c0.123-0.072,0.271-0.087,0.406-0.041c0.134,0.041,0.243,0.141,0.297,0.27
			c0.068,0.135,0.068,0.297,0,0.5c-0.068,0.216-0.149,0.365-0.284,0.433c-0.135,0.081-0.27,0.095-0.406,0.054
			c-0.149-0.054-0.243-0.135-0.311-0.27C35.962,28.917,35.975,28.741,36.029,28.539z M39.68,31.243l0.365-0.703l0.068,0.041
			l0.162,0.095c0.035,0.038,0.058,0.085,0.068,0.135c0.021,0.112,0.034,0.225,0.041,0.338l0.054,0.5l0.406,0.203l-0.027-0.433
			c-0.014-0.176-0.027-0.297-0.054-0.379c-0.027-0.068-0.054-0.149-0.108-0.23c0.149,0.054,0.284,0.054,0.419,0.027
			c0.122-0.052,0.218-0.149,0.27-0.27c0.054-0.095,0.054-0.189,0.054-0.297s-0.041-0.189-0.108-0.257
			c-0.107-0.105-0.23-0.192-0.365-0.257l-0.717-0.365l-0.865,1.677L39.68,31.243z M40.397,29.837l0.27,0.135
			c0.083,0.042,0.164,0.087,0.243,0.135c0.054,0.041,0.081,0.095,0.095,0.135c0.014,0.054,0,0.108-0.027,0.162
			c-0.027,0.054-0.054,0.095-0.095,0.108c-0.041,0.027-0.095,0.027-0.135,0.027c-0.041,0-0.149-0.054-0.311-0.135l-0.257-0.135
			L40.397,29.837z M46.157,35.259c0.046,0.246,0.193,0.462,0.406,0.595c0.202,0.148,0.458,0.202,0.703,0.149
			c0.254-0.062,0.473-0.223,0.608-0.446c0.162-0.257,0.23-0.514,0.189-0.744c-0.046-0.246-0.193-0.462-0.406-0.595
			c-0.122-0.081-0.243-0.135-0.379-0.162c-0.098-0.02-0.199-0.02-0.297,0c-0.106,0.022-0.206,0.063-0.297,0.122
			c-0.135,0.093-0.251,0.213-0.338,0.352C46.184,34.772,46.116,35.015,46.157,35.259z M46.671,34.745
			c0.135-0.189,0.27-0.297,0.406-0.325c0.135-0.041,0.284-0.027,0.406,0.068c0.122,0.095,0.203,0.216,0.216,0.352
			c0.027,0.135-0.027,0.297-0.149,0.487c-0.122,0.189-0.257,0.284-0.392,0.325c-0.135,0.041-0.27,0.013-0.406-0.081
			c-0.117-0.076-0.196-0.2-0.216-0.338c-0.027-0.149,0.014-0.311,0.149-0.487H46.671z M29.539,27.2L29.539,27.2l0.311-1.325
			l0.974,0.23l-0.041,0.216l-0.717-0.162l-0.068,0.297l0.663,0.149l-0.054,0.23l-0.663-0.162l-0.081,0.365l0.744,0.176l-0.054,0.216
			L29.539,27.2z"/>
	</g>
</g>
<g id="Layer_1">
</g>
</svg>
