<svg xmlns="http://www.w3.org/2000/svg" viewBox="0 0 48 48"><title>25-server</title><g id="_25-server" data-name="25-server" fill="#ffffff"><path d="M31,22H5a4.986,4.986,0,0,1-2.939-9.024A7.989,7.989,0,0,1,11.034,4.07a8,8,0,0,1,13.932,0,7.989,7.989,0,0,1,8.973,8.906A4.986,4.986,0,0,1,31,22ZM10,6a6,6,0,0,0-5.865,7.261,1,1,0,0,1-.514,1.094A2.988,2.988,0,0,0,5,20H31a2.988,2.988,0,0,0,1.379-5.645,1,1,0,0,1-.514-1.094,5.993,5.993,0,0,0-7.23-7.1,1,1,0,0,1-1.142-.571,6,6,0,0,0-10.986,0,1,1,0,0,1-1.142.571A6.086,6.086,0,0,0,10,6Z"/><path d="M47,48H21a1,1,0,0,1-1-1V39a1,1,0,0,1,1-1H47a1,1,0,0,1,1,1v8A1,1,0,0,1,47,48ZM22,46H46V40H22Z"/><path d="M47,36H21a1,1,0,0,1-1-1V27a1,1,0,0,1,1-1H47a1,1,0,0,1,1,1v8A1,1,0,0,1,47,36ZM22,34H46V28H22Z"/><path d="M21,44H16a1,1,0,0,1-1-1V31a1,1,0,0,1,1-1h5v2H17V42h4Z"/><path d="M16,38H11a3,3,0,0,1-3-3V24a1,1,0,0,1,1.707-.707l3,3-1.414,1.414L10,26.414V35a1,1,0,0,0,1,1h5Z"/><rect x="5.379" y="24.5" width="4.243" height="2" transform="translate(-15.835 12.772) rotate(-45)"/><path d="M43,25a1,1,0,0,1-.707-.293l-3-3,1.414-1.414L42,21.586V19a1,1,0,0,0-1-1H35V16h6a3,3,0,0,1,3,3v5a1,1,0,0,1-.617.924A.987.987,0,0,1,43,25Z"/><rect x="42.379" y="21.5" width="4.243" height="2" transform="translate(-2.876 38.056) rotate(-45)"/><rect x="24" y="30" width="2" height="2"/><rect x="28" y="30" width="16" height="2"/><rect x="24" y="42" width="2" height="2"/><rect x="28" y="42" width="16" height="2"/><path d="M23,8H21a3,3,0,0,0-3-3V3A5.006,5.006,0,0,1,23,8Z"/><rect x="27" y="13" width="7" height="2"/><rect x="23" y="13" width="2" height="2"/><path d="M8,12H6a4,4,0,0,1,4-4v2A2,2,0,0,0,8,12Z"/></g></svg>
