
<svg xmlns="http://www.w3.org/2000/svg" xml:space="preserve" width="2048px" height="2048px" style="shape-rendering:geometricPrecision; text-rendering:geometricPrecision; image-rendering:optimizeQuality; fill-rule:evenodd; clip-rule:evenodd"
viewBox="0 0 2048 2048"
 xmlns:xlink="http://www.w3.org/1999/xlink">
 <defs>
  <style type="text/css">
   <![CDATA[
    .fil17 {fill:none}
    .fil2 {fill:#202020}
    .fil11 {fill:#2F2F2F}
    .fil10 {fill:#3B3B3B}
    .fil9 {fill:#414141}
    .fil16 {fill:#4A4A4A}
    .fil7 {fill:#545454}
    .fil8 {fill:#5F5F5F}
    .fil0 {fill:#959595}
    .fil15 {fill:#989898}
    .fil3 {fill:#A2A2A2}
    .fil1 {fill:#FBFBFC}
    .fil4 {fill:#2D2D2D;fill-rule:nonzero}
    .fil5 {fill:#909090;fill-rule:nonzero}
    .fil14 {fill:#9C9C9D;fill-rule:nonzero}
    .fil13 {fill:#AFAFAF;fill-rule:nonzero}
    .fil6 {fill:#BEBEBE;fill-rule:nonzero}
    .fil12 {fill:#C9C9C9;fill-rule:nonzero}
   ]]>
  </style>
 </defs>
 <g id="Layer_x0020_1">
  <metadata id="CorelCorpID_0Corel-Layer"/>
  <g id="_308722968">
   <path id="_308723136" class="fil0" d="M1186.02 320.696l340.392 594.466 339.244 592.464 1.00039 1.99961c16.6453,34.4516 23.1201,68.7922 21.5906,101.084 -1.72441,36.4229 -13.5803,69.9319 -32.511,97.9217 -18.9414,28.0063 -45.0437,50.6138 -75.2386,65.204 -26.2701,12.6921 -55.6524,19.2957 -86.152,18.1051l0 0.0614174 -670.348 0 -673.714 0 -1.12559 -0.125197c-30.5693,-1.09016 -59.0304,-8.67638 -84.0709,-21.365 -32.3729,-16.4032 -59.113,-41.3221 -77.4508,-71.7993 -18.2929,-30.4016 -28.1362,-66.2823 -26.7662,-104.689 1.05473,-29.5607 8.7319,-60.4241 24.3012,-91.1528l0.750001 -1.5 335.661 -586.208 342.472 -598.099 3.49961 -4.87441c14.661,-17.1154 30.5658,-31.35 47.2441,-42.7926 38.0516,-26.1059 80.1201,-37.6949 120.9,-35.9008 41.1449,1.81181 80.6505,17.2311 113.185,45.1016 13.2307,11.3327 25.2768,24.6874 35.7638,39.9744l1.3748 2.1248z"/>
   <path id="_308722944" class="fil1" d="M1104.01 370.659c-4.67835,-7.21064 -11.0787,-13.5874 -17.5772,-19.1551 -15.5906,-13.3547 -34.4339,-21.1996 -54.9544,-22.1032 -22.4835,-0.988583 -43.9583,6.52323 -62.3693,19.1551 -7.01693,4.81418 -18.5445,12.6177 -23.5713,19.6205l-0.623623 0.868111 -674.312 1177.63c-7.78819,15.8055 -13.161,33.0721 -13.7929,50.7662 -0.649607,18.2114 3.67205,36.1288 13.0854,51.7725 9.21851,15.3213 22.6406,27.5811 38.5855,35.6599 12.887,6.53032 32.1579,9.36851 47.2158,11.1248l1342.4 0.011811c14.0965,0.550394 27.9567,-2.4874 40.6441,-8.61733 15.078,-7.28504 28.1079,-18.6851 37.4835,-32.5477 9.8067,-14.5004 15.3106,-31.1988 16.1386,-48.6815 0.884646,-18.6815 -3.0626,-36.463 -11.3551,-53.191l-676.993 -1182.32z"/>
  </g>
  <g id="_381614608">
   <g>
    <g>
     <path id="_308722800" class="fil2" d="M1280.38 1553.93l34.6051 0c2.1437,10.2106 20.7071,18.1914 43.2945,18.1914 22.0276,0 40.2272,-7.58977 43.1044,-17.4366 3.20788,1.40433 5.46496,4.61103 5.46496,8.32323l0 45.104c0,4.99252 -4.08544,9.07796 -9.07796,9.07796l-165.254 0c-4.99252,0 -9.07796,-4.08544 -9.07796,-9.07796l0 -11.2772c0,-21.6154 39.5433,-42.9048 56.941,-42.9048z"/>
     <rect id="_308722608" class="fil2" x="1221.7" y="1612.46" width="188.522" height="5.28652"/>
    </g>
    <polygon id="_308722464" class="fil3" points="954.685,891.976 956.212,892.549 992.414,906.125 951.897,946.641 935.606,924.561 "/>
    <path id="_308722392" class="fil4" d="M882.146 1492.61l9.25513 22.3288c1.64764,1.48937 -0.11811,-5.03622 2.90315,-4.72205 8.39292,0.871654 16.8673,1.75394 22.891,5.25945 1.15984,0.67441 4.363,1.80591 8.15434,3.14292 17.7768,6.27284 44.504,15.7051 58.1729,46.6559 12.3567,27.9815 47.9032,43.8248 62.5134,50.3363 9.05788,4.03819 14.6835,6.53977 17.002,15.2386l5.87008 22.0205 -22.813 0 -481.25 0 -19.0725 0 1.57914 -19.0028c4.89685,-58.9004 15.2835,-61.1563 34.076,-65.2371 6.34725,-1.37835 15.3036,-3.32244 31.3122,-34.9512 2.01378,-3.98032 3.86811,-7.65827 5.58071,-11.0587 13.9476,-27.6839 19.3784,-38.4603 28.8579,-47.2902 6.23859,-5.81221 12.4441,-9.1441 22.604,-14.5996 11.3067,-6.07087 28.3677,-15.2327 57.1264,-34.6252l0.068504 0c2.9067,-1.95709 10.8437,-4.14449 18.5303,-5.67284 7.37008,-1.46693 15.7689,-2.80276 18.626,-2.80276 5.2689,0 10.839,1.26024 15.9248,3.20315 5.27953,2.01496 10.3984,4.95591 14.1945,8.02087 1.79882,1.45276 3.58347,3 5.3315,4.51536 2.82638,2.44961 5.52993,4.79528 8.1189,6.41457 2.54646,1.59449 7.30985,5.12717 13.6299,9.81379 14.8654,11.0232 26.4567,41.8807 33.6485,36.0839l27.1642 6.92835z"/>
    <polygon id="_381617560" class="fil5" points="1098.78,1207.95 857.793,1399.97 841.272,1388.3 1082.26,1196.28 "/>
    <path id="_381617632" class="fil6" d="M834.806 1348.14l53.2489 69.8162 10.6311 13.937 -13.924 10.6205 -31.5024 24.0284c-0.73819,0.562205 -1.37835,1.03583 -1.91339,1.41142 -0.311811,0.218504 -0.967324,0.651969 -1.94764,1.2874l-17.6811 11.4473c-29.1815,-57.4878 -9.74292,-11.4756 -67.5815,-56.7343l-16.5791 0.614174c9.16536,-21.0886 11.7921,-40.8969 31.1882,-55.6926l31.5024 -24.0284 13.9382 -10.6311 10.6205 13.924z"/>
    <path id="_381617464" class="fil7" d="M1322.63 1124.51l0.0366142 0.0389764c2.06929,2.22992 4.09489,4.31575 6.06497,6.34489 15.0839,15.5351 27.5244,28.3465 36.4488,67.7481 24.2067,106.87 -20.5536,155.288 -20.5536,208.373 0,8.34095 47.7355,98.7473 53.4981,122.033 2.55945,10.3536 4.08662,18.3402 4.59685,24.8823 -3.92835,20.7638 -75.6556,28.6949 -87.4312,1.14921 -0.403937,-0.924804 -3.7004,-3.03898 -4.063,-4.05l-0.317717 -0.954331 -70.3335 -98.6469 -0.617717 -2.9504 -14.7189 -131.959 -59.8843 45.0296c-2.25945,2.44961 -6.15,7.27796 -7.72914,14.8843 -2.10118,10.1102 -0.514961,25.2154 11.8417,47.2595 14.5642,25.9843 27.6154,53.0989 39.926,78.6792 9.49607,19.7303 18.5433,38.5288 27.5469,55.1587l0.274016 0.548032c1.85079,3.76418 3.90945,7.27087 5.9693,10.7799 7.57442,12.9012 15.1725,25.8449 15.1725,44.2311l-1.53425 39.7796c-24.4311,-3.24449 -25.9843,-24.5303 -51.6284,-23.0681 -18.0496,1.02874 -24.0756,16.5095 -33.8646,-2.92087l-2.3126 -9.13229c-30.8953,-56.0705 -99.0721,-92.5524 -149.98,-186.697 -9.3189,-15.965 -13.4221,-37.0429 -12.2634,-57.2599 1.17047,-20.4036 7.69134,-40.5815 19.6134,-54.6721 14.3469,-16.9583 30.4252,-35.2111 47.4733,-53.8087 11.8193,-12.8929 23.7024,-25.5024 35.3422,-37.4551l-0.770079 -0.762993 -0.20315 -0.201969 214.401 -102.379z"/>
    <path id="_381617296" class="fil8" d="M1270.3 878.071c42.9225,0 78.1406,0 91.5461,69.0603l0.343701 3.29292c0,63.854 -6.43465,102.696 -16.513,128.384 -7.63111,19.4516 -17.1095,31.5095 -27.4618,40.7587 1.49055,1.7374 2.96457,3.37441 4.41615,4.93937l-165.67 79.1091 -48.7311 23.2701c-12.6272,-12.5209 -25.7209,-25.4197 -39.6626,-39.0945 -12.1087,-11.8772 -39.9827,-40.3866 -53.8028,-53.8689l-21.3567 115.041c-4.37244,15.5575 -13.9913,44.1166 -32.413,58.0371 -15.0638,11.3835 -36.0166,12.9803 -64.7989,-10.3217 -8.51103,-10.8721 -13.5933,-24.7063 -13.5933,-38.8441 0,-3.0437 0.272835,-6.27402 0.837402,-9.67442l34.4729 -207.412 -0.011811 -0.0011811c1.30276,-10.9323 3.77717,-28.9547 7.01103,-45.3555 2.33386,-11.8429 5.1189,-23.0445 8.27481,-30.789 7.4256,-18.2256 19.8508,-34.9819 35.7425,-49.0571 15.7004,-13.9063 34.7504,-25.1906 55.6158,-32.6374 34.7729,-12.4099 130.466,-8.75316 195.99,-6.24922 19.9878,0.764174 36.9685,1.41378 49.604,1.41378l0.16063 0zm3.83622 104.88l-13.8591 61.7103c-0.48189,2.57126 -1.93583,5.03741 -4.35591,6.98977 -5.9256,4.77992 -15.4051,4.67126 -21.1689,-0.243307l-72.1288 -61.3713c-3.1063,-2.27953 -5.06457,-5.61142 -5.06457,-9.32127 0,-6.87638 6.72048,-12.45 15.013,-12.45l86.8453 0 0 0.0389764c0.889371,0 1.79173,0.0673229 2.69764,0.204331 8.12835,1.23543 13.5106,7.70316 12.0213,14.4425z"/>
    <line id="_381617128" class="fil9" x1="1019.04" y1="1431.05" x2="1019.04" y2= "1431.05" />
    <polygon id="_381616960" class="fil7" points="1060.12,1045.52 1146.92,1208.41 1251.44,1168.54 1322.67,1124.54 1128.75,982.991 "/>
    <polygon id="_381616792" class="fil7" points="1014.77,1133.92 1127.22,1217.82 1109.21,1227.85 "/>
    <path id="_381616624" class="fil10" d="M1001.88 892.861c4.22599,-2.22638 8.56536,-4.28977 13.0063,-6.17835 28.3855,27.7453 114.769,109.906 115.065,110.189l-9.43229 9.91418c-0.307087,-0.291733 -92.0623,-87.5812 -118.639,-113.924z"/>
    <path id="_381616456" class="fil10" d="M933.375 964.153c1.72795,-4.18937 3.72048,-8.30197 5.95867,-12.3189 19.5047,10.7776 150.39,84.0627 150.778,84.2776l-9.64607 10.0217c-0.387402,-0.21378 -127.912,-71.4024 -147.091,-81.9804z"/>
    <path id="_381616264" class="fil11" d="M1319.06 1118.81c-0.27874,0.253937 -0.558662,0.507874 -0.839764,0.758268 1.49055,1.7374 2.96457,3.37441 4.41615,4.93937l-23.9622 11.4425c-6.15709,2.25945 -13.487,5.34685 -22.1929,9.54213 -21.4547,10.5921 -94.8816,44.6292 -138.672,67.2733l-29.5736 14.1213c-2.79213,-2.76851 -5.6067,-5.55591 -8.44843,-8.36457 24.6945,-17.9232 141.112,-71.0776 170.745,-85.3572 21.9603,-10.5815 37.6276,-14.0268 48.528,-14.3551z"/>
    <path id="_381616144" class="fil12" d="M917.26 797.877c1.1315,0.53504 2.25,1.09606 3.35433,1.68307 0.0259843,-0.0307087 0.0507874,-0.0602363 0.0767717,-0.090945 3.66614,-4.1504 12.6036,-2.24882 19.9618,4.24961 7.18583,6.34489 10.2083,14.7248 6.93308,18.9815 10.1858,13.1469 17.7543,29.5477 20.9953,45.8386 4.10788,20.6528 1.37362,41.3788 -11.4662,55.9193 -12.8398,14.5406 -33.0685,19.8189 -54.0697,18.2977 -16.5815,-1.2 -33.8079,-6.68859 -48.1217,-15.1807 -20.3043,-15.4536 -18.7417,-17.1378 -26.2607,-23.8748 -0.720473,-1.0252 -1.41732,-2.06693 -2.08819,-3.1252l-3.21024 -5.0563 3.94016 -4.46221 80.5997 -91.2768 3.94016 -4.46221 5.41536 2.55945z"/>
    <path id="_381615952" class="fil2" d="M925.839 803.526c8.78623,5.40355 15.4039,12.1949 21.6414,19.2319 18.3874,21.6496 42.3674,36.8492 30.6189,51.9615 -34.9453,44.954 -90.1595,17.9965 -118.14,3.41339 -4.49174,-2.33977 65.8796,-74.6068 65.8796,-74.6068z"/>
    <path id="_381615808" class="fil13" d="M826.02 776.836c6.56812,-4.44095 13.552,-7.94292 20.7378,-10.4847l20.7106 42.0461 -5.31733 -45.9756c4.13268,-0.660237 8.2819,-1.01457 12.411,-1.05591 18.6378,-0.187795 36.8693,5.92796 51.3603,18.724 0.820867,0.724016 1.81181,1.65827 2.96575,2.79213 0.993308,0.976772 1.96063,1.97835 2.89843,2.99882l-0.00472441 0.00472441 0.00354331 0.00354331 4.94764 5.29725 -4.76693 5.39882 -104.852 118.742 -4.77638 5.40945 -5.88308 -4.28504 -0.0897638 -0.0649607 -0.00472441 0.00708662c-1.11614,-0.798426 -2.21103,-1.62165 -3.2811,-2.47087 -1.25079,-0.992127 -2.28307,-1.84606 -3.0815,-2.55118 -14.491,-12.7949 -22.8166,-30.1299 -24.9366,-48.6473 -0.470079,-4.10315 -0.633071,-8.26418 -0.487796,-12.4465l45.4524 -0.194882 -43.4587 -15.5669c1.63347,-7.44568 4.2437,-14.8087 7.8378,-21.8764l-8.24764 -7.28268 -5.96811 -5.2689 5.27008 -5.96811 21.0768 -23.8689 5.27008 -5.96811 5.96693 5.27008 8.24764 7.28268z"/>
    <path id="_381615688" class="fil13" d="M826.02 776.836c6.56812,-4.44095 13.552,-7.94292 20.7378,-10.4847l20.7106 42.0461 -5.31733 -45.9756c4.13268,-0.660237 8.2819,-1.01457 12.411,-1.05591 18.6378,-0.187795 36.8693,5.92796 51.3603,18.724 0.820867,0.724016 1.81181,1.65827 2.96575,2.79213 0.993308,0.976772 1.96063,1.97835 2.89843,2.99882l-0.00472441 0.00472441 0.00354331 0.00354331 4.94764 5.29725 -4.76693 5.39882 -104.852 118.742 -4.77638 5.40945 -5.88308 -4.28504 -0.0897638 -0.0649607 -0.00472441 0.00708662c-1.11614,-0.798426 -2.21103,-1.62165 -3.2811,-2.47087 -1.25079,-0.992127 -2.28307,-1.84606 -3.0815,-2.55118 -14.491,-12.7949 -22.8166,-30.1299 -24.9366,-48.6473 -0.470079,-4.10315 -0.633071,-8.26418 -0.487796,-12.4465l45.4524 -0.194882 -43.4587 -15.5669c1.63347,-7.44568 4.2437,-14.8087 7.8378,-21.8764l-8.24764 -7.28268 -5.96811 -5.2689 5.27008 -5.96811 21.0768 -23.8689 5.27008 -5.96811 5.96693 5.27008 8.24764 7.28268z"/>
    <polygon id="_381615616" class="fil14" points="804.373,917.026 930.837,773.809 942.772,784.348 816.308,927.565 "/>
    <path id="_381615520" class="fil15" d="M830.025 850.084l-40.2827 -14.4295c-0.857481,4.83426 -1.29331,9.72284 -1.31102,14.6079l41.5937 -0.178347z"/>
    <path id="_381615424" class="fil15" d="M848.246 769.373l19.2225 39.0248 -4.87323 -42.1429c-4.85079,0.623623 -9.65316,1.66417 -14.3492,3.11811z"/>
    <path id="_381615328" class="fil15" d="M794.359 812.601c3.42874,-7.10552 7.8756,-13.865 13.3536,-20.0693 5.47914,-6.20434 11.6362,-11.4532 18.2622,-15.7358l-8.20276 -7.24253 -5.96693 -5.27008 -5.27008 5.96811 -21.0768 23.8689 -5.27008 5.96811 5.96811 5.2689 8.20276 7.24371z"/>
    <path id="_381615160" class="fil3" d="M857.768 882.523c7.54843,-11.5004 15.3248,-0.746457 23.5488,4.87087 8.2252,5.61615 10.6099,12.1973 7.76575,16.3618 -2.8441,4.16457 -5.47678,2.42126 -13.7008,-3.19607 -8.2252,-5.61733 -25.161,-6.53741 -17.6138,-18.0366z"/>
    <g>
     <path id="_381614992" class="fil9" d="M1139.89 1600.18l34.6051 0c2.1437,10.2106 20.7083,18.1914 43.2945,18.1914 22.0276,0 40.2284,-7.58977 43.1044,-17.4366 3.20906,1.40315 5.46496,4.61103 5.46496,8.32205l0 45.1052c0,4.99252 -4.08426,9.07796 -9.07796,9.07796l-165.254 0c-4.99252,0 -9.07796,-4.08544 -9.07796,-9.07796l0 -11.2772c0,-21.6154 39.5445,-42.9048 56.941,-42.9048z"/>
     <rect id="_381614920" class="fil2" x="1081.22" y="1658.71" width="188.522" height="5.28652"/>
    </g>
   </g>
   <path id="_381614680" class="fil16" d="M1333.35 1135.68c0,0 36.7654,85.9961 -35.6729,133.417 -38.4532,25.1729 -60.3142,39.8551 -72.3627,48.091l14.6469 131.288 0.617717 2.94921 70.3312 98.6505 0.318898 0.950788c0.248032,0.694489 1.88032,1.90866 3.00827,2.90079 0.514961,0.453544 0.925985,0.861024 1.05236,1.15276 0.00354331,0.00590552 0.00590552,0.0141732 0.00944883,0.0212599 0.646063,1.50709 1.47284,2.90788 2.45788,4.20591 16.624,21.9095 78.4477,14.589 84.6343,-4.10079 0.138189,-0.421654 0.249213,-0.846851 0.330709,-1.27913 -0.512599,-6.53859 -2.03977,-14.5276 -4.59449,-24.8823 -5.76733,-23.2866 -53.4993,-113.691 -53.4993,-122.034 0,-53.0835 44.7615,-101.503 20.5512,-208.37 -7.99725,-35.3067 -18.8162,-49.265 -31.8296,-62.9611z"/>
  </g>
  <rect class="fil17" width="2048" height="2048"/>
 </g>
</svg>
