<svg version="1.1" id="Layer_1" xmlns="http://www.w3.org/2000/svg" xmlns:xlink="http://www.w3.org/1999/xlink" x="0px" y="0px"
	 viewBox="0 0 256 256" style="enable-background:new 0 0 256 256;" xml:space="preserve">
<style type="text/css">
	.st0{fill:#D73735;}
	.st1{fill:#F85252;}
	.st2{fill:#EDAF85;}
	.st3{fill:#F7C09A;}
	.st4{fill:#D8D6D7;}
	.st5{fill:#FFFFFF;}
	.st6{fill:#1C868E;}
	.st7{fill:#40C4DF;}
	.st8{fill:#491352;}
	.st9{fill:#56C1B3;}
	.st10{fill:#7BEFE4;}
</style>
<g>
	<path class="st4" d="M253.5,10.3v75.03c0,3.44-2.79,6.23-6.23,6.23h-79.28l-13.4,24.74c-2.31,4.26-8.78,2.62-8.78-2.23V91.56h-5.58
		c-3.44,0-6.23-2.79-6.23-6.23V10.3c0-3.44,2.79-6.23,6.23-6.23h107.04C250.71,4.07,253.5,6.86,253.5,10.3z"/>
	<path class="st5" d="M253.5,10.3v75.03c0,3.44-2.79,6.23-6.23,6.23h-83.62c-3.45,0-6.24-2.79-6.24-6.23V10.3
		c0-3.44,2.79-6.23,6.24-6.23h83.62C250.71,4.07,253.5,6.86,253.5,10.3z"/>
	<path class="st0" d="M123.664,241.227v3.71c0,2.76-2.24,5-5,5H8.324c-2.76,0-5-2.24-5-5v-3.71c0-33.23,26.94-60.17,60.17-60.17
		c2.77,0,5.5,0.19,8.17,0.55c13.35,1.81,25.31,8,34.38,17.07C116.934,209.567,123.664,224.607,123.664,241.227z"/>
	<path class="st1" d="M123.664,241.227v3.71c0,2.76-2.24,5-5,5h-94c-2.76,0-5-2.24-5-5v-3.71c0-30.46,22.64-55.64,52-59.62
		c13.35,1.81,25.31,8,34.38,17.07C116.934,209.567,123.664,224.607,123.664,241.227z"/>
	<path class="st2" d="M63.494,201.802L63.494,201.802c-7.112,0-12.878-5.766-12.878-12.878v-28.621h25.756v28.621
		C76.372,196.037,70.606,201.802,63.494,201.802z"/>
	<path class="st2" d="M11.768,136.941L11.768,136.941c0,6.163,5.042,11.205,11.205,11.205h4.589v-22.409h-4.589
		C16.81,125.736,11.768,130.778,11.768,136.941z"/>
	<path class="st2" d="M104.014,125.736h-4.589v22.409h4.589c6.163,0,11.205-5.042,11.205-11.205v0
		C115.219,130.778,110.177,125.736,104.014,125.736z"/>
	<path class="st2" d="M100.464,100.987v43.06c0,18.14-13.23,33.33-30.53,36.4c-2.09,0.38-4.24,0.57-6.44,0.57
		c-20.34,0-36.97-16.63-36.97-36.97v-43.06c0-2.75,2.25-5,5-5h63.94C98.214,95.987,100.464,98.237,100.464,100.987z"/>
	<path class="st3" d="M100.464,100.987v43.06c0,18.14-13.23,33.33-30.53,36.4c-17.3-3.06-30.54-18.25-30.54-36.4v-43.06
		c0-2.75,2.25-5,5-5h51.07C98.214,95.987,100.464,98.237,100.464,100.987z"/>
	<path class="st6" d="M36.104,94.087v22.39c0,5.11-4.15,9.26-9.26,9.26c-5.11,0-9.26-4.15-9.26-9.26v-22.39
		c0-5.11,4.15-9.26,9.26-9.26c2.55,0,4.87,1.04,6.55,2.71C35.064,89.217,36.104,91.527,36.104,94.087z"/>
	<path class="st7" d="M36.104,94.087v10.22c0,5.11-4.15,9.26-9.26,9.26c-5.11,0-9.26-4.15-9.26-9.26v-10.22
		c0-5.11,4.15-9.26,9.26-9.26c2.55,0,4.87,1.04,6.55,2.71C35.064,89.217,36.104,91.527,36.104,94.087z"/>
	<path class="st7" d="M121.374,65.417l-2.1,7.32l-4.8,16.74c-4.08,14.25-18.11,24.51-32.77,22.29l-42.32-4.86
		c-1.65-0.19-2.94-1.45-3.23-3.03c-0.03-0.21-0.05-0.43-0.05-0.65v-9.14c0-11.99,9.72-21.71,21.71-21.71h32.47
		c9.77,0,19.2-3.63,26.44-10.2c0.59-0.54,1.27-0.77,1.92-0.77C120.514,61.407,122.224,63.297,121.374,65.417z"/>
	<path class="st6" d="M119.274,72.737l-4.8,16.74c-4.08,14.25-18.11,24.51-32.77,22.29l-42.32-4.86c-1.65-0.19-2.94-1.45-3.23-3.03
		c0.75-11.31,10.16-20.25,21.66-20.25h32.47c9.77,0,19.2-3.63,26.44-10.2c0.59-0.54,1.27-0.77,1.92-0.77
		C118.854,72.657,119.064,72.677,119.274,72.737z"/>
	<g>
		<path class="st8" d="M246.86,3.06H139.82c-4.54,0-8.23,3.7-8.23,8.24v75.03c0,4.53,3.69,8.23,8.23,8.23h3.58v20.51
			c0,6.947,9.249,9.241,12.54,3.18l12.83-23.69h78.09c4.54,0,8.23-3.7,8.23-8.23V11.3C255.09,6.76,251.4,3.06,246.86,3.06z
			 M251.09,86.33c0,2.33-1.9,4.23-4.23,4.23h-79.28c-1.685,0-0.804-0.725-15.16,25.78c-1.33,2.459-5.02,1.491-5.02-1.27V92.56
			c0-1.11-0.89-2-2-2h-5.58c-2.33,0-4.23-1.9-4.23-4.23V11.3c0-2.34,1.9-4.24,4.23-4.24h107.04c2.33,0,4.23,1.9,4.23,4.24V86.33z"/>
		<path class="st8" d="M218.109,27.343c-1.942-1.794-4.66,1.14-2.715,2.937l20.899,19.324l-20.899,19.324
			c-1.941,1.794,0.77,4.734,2.715,2.938c24.474-22.629,23.131-21.036,23.131-22.261C241.24,48.362,242.462,49.858,218.109,27.343z"
			/>
		<path class="st8" d="M168.567,27.343c-24.499,22.651-23.131,21.047-23.131,22.261c0,0.558,0.232,1.09,0.643,1.468
			c24.368,22.531,22.731,21.324,23.845,21.324c1.811,0,2.695-2.234,1.358-3.469l-20.899-19.324l20.899-19.324
			C173.227,28.484,170.505,25.547,168.567,27.343z"/>
		<path class="st8" d="M203.61,27.811l-24.009,41.585c-1.32,2.288,2.139,4.292,3.465,2l24.009-41.585
			C208.395,27.522,204.935,25.52,203.61,27.811z"/>
		<circle class="st8" cx="44.874" cy="134.976" r="4.954"/>
		<path class="st8" d="M81.29,139.929c2.736,0,4.954-2.218,4.954-4.954c0-2.736-2.218-4.954-4.954-4.954s-4.953,2.218-4.953,4.954
			C76.336,137.711,78.554,139.929,81.29,139.929z"/>
		<path class="st8" d="M70.967,147.526c-1.104,0-2,0.896-2,2c0,3.245-2.64,5.885-5.885,5.885s-5.885-2.64-5.885-5.885
			c0-2.642-4-2.646-4,0c0,5.451,4.435,9.885,9.885,9.885C72.273,159.411,75.493,147.526,70.967,147.526z"/>
		<path class="st8" d="M77.96,181.85v-0.79c12.319-5.1,21.478-16.358,23.609-29.916h2.033c7.281,0,13.205-5.923,13.205-13.205
			s-5.924-13.205-13.205-13.205h-1.552c0-13.863,0.094-13.419-0.27-14.674c6.64-4.25,11.89-10.95,14.21-19.04l6.87-23.97
			c1.796-4.783-4.067-8.829-7.9-5.35c-6.88,6.24-15.79,9.68-25.09,9.68H57.4c-10.48,0-19.4,6.83-22.51,16.28
			c-6.829-7.753-19.72-2.943-19.72,7.42c0,24.02-0.961,25.877,3.272,30.321c-5.268,1.736-9.085,6.696-9.085,12.538
			c0,7.281,5.923,13.205,13.204,13.205h2.03c2.131,13.558,11.29,24.816,23.609,29.916v0.8c-27.12,6.69-47.29,31.22-47.29,60.37v3.71
			c0,3.86,3.14,7,7,7h110.34c3.86,0,7-3.14,7-7v-3.71C125.25,212.893,105.135,188.594,77.96,181.85z M103.603,128.734
			c5.076,0,9.205,4.129,9.205,9.205c0,5.075-4.129,9.205-9.205,9.205h-1.609c0.014-0.151,0.056-1.926,0.056-18.41H103.603z
			 M37.69,95.08c0-10.86,8.84-19.7,19.71-19.7h32.47c10.29,0,20.16-3.81,27.78-10.72c0.664-0.593,1.819-0.087,1.39,1.2l-6.9,24.06
			c-3.92,13.7-17.34,22.86-30.62,20.86l-42.32-4.86c-0.86-0.1-1.51-0.83-1.51-1.7V95.08z M24.11,128.734
			c0,16.484,0.043,18.259,0.056,18.41h-1.606C11.044,147.144,9.047,128.734,24.11,128.734z M19.17,117.48v-22.4
			c0-4,3.26-7.25,7.26-7.25s7.26,3.25,7.26,7.25c0,11.823,0,10.814,0,22.4c0,4-3.26,7.25-7.26,7.25S19.17,121.48,19.17,117.48z
			 M28.11,145.05V128.6c5.42-0.81,9.58-5.49,9.58-11.12v-7.81c0.825,0.25-2.239-0.158,43.3,5.08
			c5.653,0.848,11.577-0.038,17.06-2.63v32.93c0,19.28-15.69,34.97-34.97,34.97C43.8,180.02,28.11,164.33,28.11,145.05z
			 M73.96,182.47c0,0.776,0,6.64,0,7.46c0,6-4.88,10.88-10.88,10.88s-10.88-4.88-10.88-10.88c0-0.82,0-6.684,0-7.46
			C59.281,184.537,66.876,184.538,73.96,182.47z M121.25,245.94c0,1.65-1.34,3-3,3H7.91c-1.65,0-3-1.35-3-3v-3.71
			c0-26.94,18.4-49.65,43.29-56.24v3.94c0,8.2,6.68,14.88,14.88,14.88c8.21,0,14.88-6.68,14.88-14.88v-3.95
			c24.802,6.59,43.29,29.029,43.29,56.25V245.94z"/>
	</g>
</g>
</svg>
