<?xml version="1.0" encoding="iso-8859-1"?>
<!-- Generator: Adobe Illustrator 22.1.0, SVG Export Plug-In . SVG Version: 6.00 Build 0)  -->
<svg version="1.1" xmlns="http://www.w3.org/2000/svg" xmlns:xlink="http://www.w3.org/1999/xlink" x="0px" y="0px"
	 viewBox="0 0 64 64" style="enable-background:new 0 0 64 64;" xml:space="preserve">
<g id="_x31_">
	<circle style="fill:#FFFFFF;" cx="32" cy="32" r="32"/>
	<path style="fill:#C64252;" d="M32,0c5.907,0,11.435,1.607,16.185,4.398H27.55V0.315C29.005,0.112,30.489,0,32,0z M27.55,34.511
		h36.343C63.957,33.682,64,32.846,64,32s-0.043-1.682-0.107-2.511H27.55V34.511z M27.55,14.437h31.196
		c-1.189-1.807-2.552-3.49-4.073-5.017H27.55V14.437z M27.55,24.482h35.553c-0.418-1.736-0.972-3.42-1.661-5.033H27.55V24.482z
		 M32,64c5.907,0,11.436-1.607,16.185-4.398h-32.37C20.564,62.393,26.093,64,32,64z M2.558,44.551h58.885
		c0.687-1.608,1.239-3.286,1.657-5.017H0.9C1.318,41.264,1.871,42.942,2.558,44.551z M9.327,54.58h45.346
		c1.521-1.527,2.884-3.21,4.073-5.017H5.254C6.443,51.37,7.806,53.053,9.327,54.58z"/>
	<path style="fill:#2B497A;" d="M7.657,11.241c-1.93,2.261-3.548,4.793-4.794,7.532l0.343,1.069h1.466l-1.185,0.854l0.446,1.389
		l-1.172-0.867l-1.185,0.867l0.031-0.096c-0.876,2.661-1.42,5.474-1.565,8.392l-0.009,0.362C0.016,31.161,0,31.579,0,32
		c0,0.846,0.043,1.682,0.107,2.511H27.55v-5.022v-5.007v-5.033v-5.012V9.42V4.398V0.315c-1.379,0.192-2.728,0.472-4.045,0.834
		l0.36,1.12h1.466l-1.185,0.854l0.459,1.402l-1.185-0.867l-1.185,0.854l0.459-1.389l-1.185-0.854h1.466l0.342-1.066
		c-2.504,0.705-4.882,1.705-7.096,2.963l-0.211,0.121c-1.444,0.835-2.818,1.777-4.109,2.82l-0.456,0.374
		c-1.275,1.07-2.463,2.24-3.557,3.495 M3.933,29.12l-1.172-0.867l-1.185,0.854l0.446-1.389l-1.172-0.854h1.453l0.459-1.389
		l0.446,1.389h1.466l-1.185,0.854L3.933,29.12z M8.075,32.624L6.89,31.771l-1.185,0.854l0.459-1.402l-1.185-0.854h1.453l0.459-1.376
		l0.446,1.389h1.466l-1.185,0.854L8.075,32.624z M7.616,24.214l0.459,1.376L6.89,24.736L5.704,25.59l0.459-1.389l-1.185-0.854h1.453
		l0.459-1.389l0.446,1.402h1.466L7.616,24.214z M7.616,17.179l0.459,1.402L6.89,17.714l-1.185,0.854l0.459-1.389l-1.185-0.854h1.453
		l0.459-1.389l0.446,1.389h1.466L7.616,17.179z M12.204,29.12l-1.185-0.867l-1.172,0.854l0.446-1.389l-1.185-0.854h1.478
		l0.433-1.389l0.459,1.389h1.453l-1.172,0.854L12.204,29.12z M11.758,20.696l0.446,1.389l-1.185-0.867l-1.172,0.867l0.446-1.402
		L9.107,19.83h1.478l0.433-1.376l0.459,1.389h1.453L11.758,20.696z M11.758,13.662l0.446,1.402l-1.185-0.867l-1.172,0.854
		l0.446-1.389l-1.185-0.854h1.478l0.433-1.389l0.459,1.389h1.453L11.758,13.662z M16.333,32.624l-1.185-0.854l-1.172,0.854
		l0.446-1.402l-1.172-0.854h1.453l0.446-1.376l0.459,1.389h1.453l-1.172,0.854L16.333,32.624z M15.887,24.214l0.446,1.376
		l-1.185-0.854l-1.172,0.854l0.446-1.389l-1.172-0.854h1.453l0.446-1.389l0.459,1.402h1.453L15.887,24.214z M15.887,17.179
		l0.446,1.402l-1.185-0.867l-1.172,0.854l0.446-1.389l-1.172-0.854h1.453l0.446-1.389l0.459,1.389h1.453L15.887,17.179z
		 M15.887,10.157l0.446,1.389l-1.185-0.867l-1.172,0.867l0.446-1.402l-1.172-0.854h1.453l0.446-1.389l0.459,1.402h1.453
		L15.887,10.157z M20.462,29.12l-1.172-0.867l-1.185,0.854l0.446-1.389l-1.172-0.854h1.453l0.459-1.389l0.446,1.389h1.466
		l-1.185,0.854L20.462,29.12z M20.016,20.696l0.446,1.389l-1.172-0.867l-1.185,0.867l0.446-1.402l-1.172-0.854h1.453l0.459-1.376
		l0.446,1.389h1.466L20.016,20.696z M20.016,13.662l0.446,1.402l-1.172-0.867l-1.185,0.854l0.446-1.389l-1.172-0.854h1.453
		l0.459-1.389l0.446,1.389h1.466L20.016,13.662z M20.016,6.64l0.446,1.389l-1.172-0.854l-1.185,0.854L18.55,6.64l-1.172-0.854h1.453
		l0.459-1.389l0.446,1.389h1.466L20.016,6.64z M24.603,32.624l-1.185-0.854l-1.185,0.854l0.459-1.402l-1.185-0.854h1.466
		l0.446-1.376l0.446,1.389h1.466l-1.185,0.854L24.603,32.624z M24.145,24.214l0.459,1.376l-1.185-0.854l-1.185,0.854l0.459-1.389
		l-1.185-0.854h1.466l0.446-1.389l0.446,1.402h1.466L24.145,24.214z M24.145,17.179l0.459,1.402l-1.185-0.867l-1.185,0.854
		l0.459-1.389l-1.185-0.854h1.466l0.446-1.389l0.446,1.389h1.466L24.145,17.179z M24.145,10.157l0.459,1.389l-1.185-0.867
		l-1.185,0.867l0.459-1.402l-1.185-0.854h1.466l0.446-1.389l0.446,1.402h1.466L24.145,10.157z"/>
</g>
<g id="Layer_1">
</g>
</svg>
