<svg xmlns="http://www.w3.org/2000/svg" viewBox="0 0 64 64"><defs><style>.cls-1{fill:#cdd2e1;}.cls-2{fill:#fff;}.cls-3{fill:#f2f6fc;}.cls-4{fill:#adb2c7;}.cls-5{fill:#73c6b2;}.cls-6{fill:#8dd5f6;}.cls-7{fill:#aedff7;}.cls-8{fill:#f6fafd;}.cls-9{fill:#11a892;}.cls-10{fill:#9196aa;}.cls-11{fill:#ffe4c2;}.cls-12{fill:#ffc247;}.cls-13{fill:#ffa426;}</style></defs><title>22-Web Programming</title><g id="_22-Web_Programming" data-name="22-Web Programming"><polygon class="cls-1" points="13 42 13 50 5 50 13 42"/><polygon class="cls-2" points="13 42 5 50 5 42 13 42"/><polygon class="cls-1" points="13 55 13 63 5 63 13 55"/><polygon class="cls-2" points="13 55 5 63 5 55 13 55"/><polygon class="cls-1" points="49 14 49 22 41 22 49 14"/><polygon class="cls-2" points="49 14 41 22 41 14 49 14"/><path class="cls-3" d="M10,7V37H6a2.006,2.006,0,0,1-2-2V3A2.006,2.006,0,0,1,6,1h4Z"/><path class="cls-1" d="M36,3V7H10V1H34A2.006,2.006,0,0,1,36,3Z"/><path class="cls-4" d="M36,7V27H20a2.006,2.006,0,0,0-2,2v8H10V7Z"/><path class="cls-3" d="M50,55v6a2.006,2.006,0,0,1-2,2H27V55Z"/><polygon class="cls-5" points="50 50 50 55 27 55 27 49 35 41 40 46 43 43 50 50"/><path class="cls-6" d="M50,29V50l-7-7-3,3-5-5-8,8V27H48A2.006,2.006,0,0,1,50,29Z"/><path class="cls-1" d="M27,55v8H20a2.006,2.006,0,0,1-2-2V29a2.006,2.006,0,0,1,2-2h7V55Z"/><path class="cls-7" d="M48,27H27v8.094C32.118,35.487,32.982,37,39.6,37c5.542,0,7.052-1.061,10.405-1.637V29A2.006,2.006,0,0,0,48,27Z"/><path class="cls-8" d="M48,27H27v3.094C32.118,30.487,32.982,32,39.6,32c5.542,0,7.052-1.061,10.405-1.637V29A2.006,2.006,0,0,0,48,27Z"/><path class="cls-9" d="M40,46l-5-5-6.007,6.007c.137,0,.259-.007.4-.007,7.6,0,7.6,2,15.2,2a29.25,29.25,0,0,0,4.143-.262L43,43Z"/><path class="cls-10" d="M18,29a2.006,2.006,0,0,1,2-2H36V24H17a2.006,2.006,0,0,0-2,2V37h3Z"/><polygon class="cls-1" points="49 1 49 9 41 9 49 1"/><polygon class="cls-2" points="49 1 41 9 41 1 49 1"/><polygon class="cls-6" points="54 54 60 54 60 57 58 59 56 59 54 57 54 54"/><polygon class="cls-11" points="57 1 60 9 57 8 54 9 57 1"/><polygon class="cls-12" points="54 9 57 8 60 9 60 29 60 54 54 54 54 29 54 9"/><path class="cls-13" d="M57,8,54,9v6.694a24.977,24.977,0,0,1,6-.687V9Z"/><circle class="cls-12" cx="40" cy="35" r="3"/><rect class="cls-2" x="18" y="16" width="2" height="2"/><rect class="cls-2" x="26" y="16" width="2" height="2"/><path d="M60.931,8.651l.006,0-3-8a1,1,0,0,0-1.874,0l-3,8,.006,0A1,1,0,0,0,53,9V57a1,1,0,0,0,.293.707l2,2A1,1,0,0,0,56,60h2a1,1,0,0,0,.707-.293l2-2A1,1,0,0,0,61,57V9A.973.973,0,0,0,60.931,8.651ZM59,53H55V9.721l2-.667,2,.667ZM57,3.848l1.327,3.54-1.011-.337a1,1,0,0,0-.632,0l-1.011.337ZM57.586,58H56.414L55,56.586V55h4v1.586Z"/><path d="M41,10h8a1,1,0,0,0,1-1V1a1,1,0,0,0-1-1H41a1,1,0,0,0-1,1V9A1,1,0,0,0,41,10Zm2.414-2L48,3.414V8Zm3.172-6L42,6.586V2Z"/><path d="M41,23h8a1,1,0,0,0,1-1V14a1,1,0,0,0-1-1H41a1,1,0,0,0-1,1v8A1,1,0,0,0,41,23Zm2.414-2L48,16.414V21Zm3.172-6L42,19.586V15Z"/><path d="M48,26H37V3a3,3,0,0,0-3-3H6A3,3,0,0,0,3,3V35a3,3,0,0,0,3,3H17V61a3,3,0,0,0,3,3H48a3,3,0,0,0,3-3V29A3,3,0,0,0,48,26ZM28,49.414l7-7,4.293,4.293a1,1,0,0,0,1.414,0L43,44.414l6,6V54H28ZM49,29V47.586l-5.293-5.293a1,1,0,0,0-1.414,0L40,44.586l-4.293-4.293a1,1,0,0,0-1.414,0L28,46.586V28H48A1,1,0,0,1,49,29ZM35,3V6H11V2H34A1,1,0,0,1,35,3ZM5,35V3A1,1,0,0,1,6,2H9V36H6A1,1,0,0,1,5,35Zm6,1V8H35V26H20a3,3,0,0,0-3,3v7Zm8,25V29a1,1,0,0,1,1-1h6V62H20A1,1,0,0,1,19,61Zm29,1H28V56H49v5A1,1,0,0,1,48,62Z"/><path d="M40,39a4,4,0,1,0-4-4A4,4,0,0,0,40,39Zm0-6a2,2,0,1,1-2,2A2,2,0,0,1,40,33Z"/><path d="M18,22h-.865a5.871,5.871,0,0,0-.877-3.977A2.715,2.715,0,0,0,15,17.155v-.31a2.715,2.715,0,0,0,1.258-.868A5.871,5.871,0,0,0,17.135,12H18V10H16a1,1,0,0,0-.981,1.2c.163.826.3,2.772-.309,3.514A.81.81,0,0,1,14,15a1,1,0,0,0-1,1v2a1,1,0,0,0,1,1,.81.81,0,0,1,.71.291c.611.742.472,2.688.309,3.514A1,1,0,0,0,16,24h2Z"/><path d="M30.772,23.634a1,1,0,0,0,.209-.829c-.163-.826-.3-2.772.309-3.514A.81.81,0,0,1,32,19a1,1,0,0,0,1-1V16a1,1,0,0,0-1-1,.81.81,0,0,1-.71-.291c-.611-.742-.472-2.688-.309-3.514A1,1,0,0,0,30,10H28v2h.865a5.871,5.871,0,0,0,.877,3.977A2.715,2.715,0,0,0,31,16.845v.31a2.715,2.715,0,0,0-1.258.868A5.871,5.871,0,0,0,28.865,22H28v2h2A1,1,0,0,0,30.772,23.634Z"/><rect x="22" y="16" width="2" height="2"/><path d="M13,41H5a1,1,0,0,0-1,1v8a1,1,0,0,0,1,1h8a1,1,0,0,0,1-1V42A1,1,0,0,0,13,41Zm-2.414,2L6,47.586V43ZM7.414,49,12,44.414V49Z"/><path d="M13,54H5a1,1,0,0,0-1,1v8a1,1,0,0,0,1,1h8a1,1,0,0,0,1-1V55A1,1,0,0,0,13,54Zm-2.414,2L6,60.586V56ZM7.414,62,12,57.414V62Z"/></g></svg>